<?xml version="1.0" encoding="utf-8"?>
<!-- Generator: Adobe Illustrator 28.0.0, SVG Export Plug-In . SVG Version: 6.00 Build 0)  -->
<svg version="1.1" id="Capa_1" xmlns="http://www.w3.org/2000/svg" xmlns:xlink="http://www.w3.org/1999/xlink" x="0px" y="0px"
	 viewBox="0 0 32 32" style="enable-background:new 0 0 32 32;" xml:space="preserve">
<style type="text/css">
	.st0{fill:#00FF00;}
	.st1{fill:#32B521;}
</style>
<path class="st0" d="M14.6,18.4c-0.3,0-0.5-0.1-0.7-0.3l-4.2-4.2c-0.4-0.4-0.4-1,0-1.4l2.4-2.4c0.8-0.8,0.8-2,0-2.8L9.4,4.6
	c-0.7-0.7-2-0.7-2.8,0c0,0-0.1,0.1-0.1,0.1c-0.1,0.1-2.9,2.1-2.4,6.2c0.1,0.5-0.3,1.1-0.9,1.1c-0.5,0.1-1.1-0.3-1.1-0.9
	c0,0,0,0,0-0.1c-0.6-5,2.6-7.6,3.2-8c1.5-1.4,4.1-1.4,5.5,0.1l2.8,2.8c1.5,1.5,1.5,4,0,5.6l-1.7,1.7l3.5,3.5c0.4,0.4,0.4,1,0,1.4
	C15.1,18.3,14.9,18.4,14.6,18.4z M9.8,23.3c-0.3,0-0.5-0.1-0.7-0.3c-2.5-2.5-4.3-4.9-5.5-7.1c-0.3-0.5-0.1-1.1,0.4-1.3
	s1.1-0.1,1.3,0.4c1.1,2.1,2.8,4.3,5.1,6.6c0.4,0.4,0.4,1,0,1.4C10.3,23.2,10,23.3,9.8,23.3z"/>
<path class="st1" d="M22,30c-3.9,0-8.3-2.4-13-7.1c-0.4-0.4-0.4-1,0-1.4c0.4-0.4,1-0.4,1.4,0c4.5,4.5,8.8,6.8,12.3,6.4
	c3.1-0.3,4.6-2.4,4.6-2.5c0-0.1,0.1-0.1,0.1-0.1C27.8,25,28,24.5,28,24s-0.2-1-0.6-1.4l-2.8-2.8c-0.4-0.4-0.9-0.6-1.4-0.6
	c-0.5,0-1,0.2-1.4,0.6l-2.4,2.4c-0.4,0.4-1,0.4-1.4,0c0,0,0,0,0,0l-4.2-4.2c-0.4-0.4-0.4-1,0-1.4s1-0.4,1.4,0l0,0l3.5,3.5l1.7-1.7
	c0.7-0.7,1.7-1.2,2.8-1.2c1.1,0,2,0.4,2.8,1.2l2.8,2.8c0.7,0.7,1.2,1.7,1.2,2.8c0,1-0.4,2-1.1,2.7c-0.4,0.5-2.3,2.9-6,3.3
	C22.6,30,22.3,30,22,30z"/>
</svg>
