<svg viewBox="0 0 22.59 22.59" xmlns="http://www.w3.org/2000/svg"><g data-name="Layer 2"><g data-name="Layer 1"><path d="M21.7 9.583h-1.183a9.351 9.351 0 0 0-.381-1.416l1.025-.593a.893.893 0 0 0 .326-1.215l-.822-1.423a.89.89 0 0 0-1.215-.326l-1.028.59a9.384 9.384 0 0 0-1.036-1.036l.594-1.028a.891.891 0 0 0-.326-1.215L16.23 1.1a.892.892 0 0 0-1.215.325l-.592 1.026a9.247 9.247 0 0 0-1.417-.381V.89a.891.891 0 0 0-.89-.89h-1.643a.89.89 0 0 0-.889.89v1.183a9.216 9.216 0 0 0-1.417.381l-.593-1.026A.89.89 0 0 0 6.359 1.1l-1.423.821a.894.894 0 0 0-.326 1.218l.59 1.028A9.471 9.471 0 0 0 4.167 5.2l-1.028-.59a.891.891 0 0 0-1.215.326L1.1 6.359a.893.893 0 0 0 .325 1.215l1.026.593a9.351 9.351 0 0 0-.381 1.416H.89a.891.891 0 0 0-.89.89v1.643a.891.891 0 0 0 .89.89h1.183a9.331 9.331 0 0 0 .381 1.417l-1.025.593a.892.892 0 0 0-.329 1.215l.821 1.423a.892.892 0 0 0 1.216.325l1.027-.593A9.393 9.393 0 0 0 5.2 18.422l-.59 1.028a.894.894 0 0 0 .326 1.216l1.423.821a.893.893 0 0 0 1.215-.325l.593-1.026a9.216 9.216 0 0 0 1.417.381V21.7a.89.89 0 0 0 .889.89h1.643a.891.891 0 0 0 .89-.89v-1.183a9.247 9.247 0 0 0 1.417-.381l.592 1.026a.893.893 0 0 0 1.215.325l1.424-.821a.9.9 0 0 0 .326-1.216l-.594-1.028a9.3 9.3 0 0 0 1.036-1.036l1.028.593a.893.893 0 0 0 1.215-.325l.822-1.423a.89.89 0 0 0-.326-1.215l-1.025-.593a9.363 9.363 0 0 0 .381-1.417H21.7a.891.891 0 0 0 .89-.89v-1.643a.892.892 0 0 0-.89-.89Zm.205 2.533a.2.2 0 0 1-.205.205h-1.473a.342.342 0 0 0-.338.291 8.6 8.6 0 0 1-.489 1.838.342.342 0 0 0 .148.421l1.276.737a.206.206 0 0 1 .075.281l-.821 1.423a.209.209 0 0 1-.281.075l-1.277-.738a.34.34 0 0 0-.438.082 8.747 8.747 0 0 1-1.347 1.346.342.342 0 0 0-.081.438l.738 1.277a.208.208 0 0 1-.076.281l-1.423.821a.2.2 0 0 1-.28-.075l-.737-1.276a.344.344 0 0 0-.421-.148 8.6 8.6 0 0 1-1.837.494.342.342 0 0 0-.291.339V21.7a.205.205 0 0 1-.206.205h-1.648a.205.205 0 0 1-.205-.205v-1.472a.343.343 0 0 0-.291-.339 12.1 12.1 0 0 1-1.962-.517.339.339 0 0 0-.3.171l-.737 1.276a.207.207 0 0 1-.281.075l-1.423-.821a.207.207 0 0 1-.075-.281l.738-1.277a.344.344 0 0 0-.082-.438 8.741 8.741 0 0 1-1.346-1.346.341.341 0 0 0-.438-.082l-1.271.738a.205.205 0 0 1-.28-.075l-.82-1.423a.206.206 0 0 1 .076-.281l1.276-.737a.344.344 0 0 0 .148-.421 8.563 8.563 0 0 1-.5-1.838.344.344 0 0 0-.339-.291H.89a.2.2 0 0 1-.2-.205v-1.643a.205.205 0 0 1 .2-.205h1.472a.344.344 0 0 0 .338-.291 8.6 8.6 0 0 1 .5-1.838.344.344 0 0 0-.148-.421L1.77 6.982A.208.208 0 0 1 1.7 6.7l.822-1.423A.205.205 0 0 1 2.8 5.2l1.277.738a.342.342 0 0 0 .438-.082 8.7 8.7 0 0 1 1.344-1.343.344.344 0 0 0 .082-.438L5.2 2.8a.207.207 0 0 1 .075-.281L6.7 1.7a.205.205 0 0 1 .281.076l.737 1.276a.342.342 0 0 0 .42.148 8.61 8.61 0 0 1 1.839-.5.343.343 0 0 0 .291-.339V.89a.206.206 0 0 1 .205-.206h1.643a.206.206 0 0 1 .206.206v1.472a.342.342 0 0 0 .291.339 8.6 8.6 0 0 1 1.837.499.344.344 0 0 0 .421-.148l.737-1.276a.207.207 0 0 1 .281-.076l1.422.822a.208.208 0 0 1 .076.281l-.738 1.277a.342.342 0 0 0 .081.438 8.7 8.7 0 0 1 1.347 1.346.342.342 0 0 0 .438.082l1.277-.746a.208.208 0 0 1 .281.075l.821 1.425a.208.208 0 0 1-.075.281l-1.276.736a.343.343 0 0 0-.148.421 8.626 8.626 0 0 1 .494 1.838.342.342 0 0 0 .338.291H21.7a.205.205 0 0 1 .205.205ZM11.373 6.557c-3.1-2.357-6.689-.609-6.336 3.366a14.734 14.734 0 0 0 2.833 7.76.914.914 0 0 0 .987.3.959.959 0 0 0 .668-.836c.252-2.758 1.355-4.179 1.77-4.179s1.519 1.421 1.771 4.178a.94.94 0 0 0 1.655.534c1.793-2.265 4.237-8.2 1.839-11.17-1.66-1.81-4.005-.835-5.187.047Zm5.5 3.311a14.024 14.024 0 0 1-2.68 7.38.228.228 0 0 1-.257.082.267.267 0 0 1-.187-.244c-.242-2.647-1.342-4.8-2.453-4.8s-2.21 2.153-2.452 4.8c-.045.273-.288.332-.444.163-1.561-1.887-3.966-7.716-1.876-10.262 1.97-2.171 5.228.592 5.714 1.2.3.333.808-.144.5-.464a8.051 8.051 0 0 0-.79-.727c2.337-1.722 5.136-.669 4.924 2.872ZM9.215 8.379a1.158 1.158 0 0 0-.991.157c-.669.552-.465 1.593-.363 2.357a.342.342 0 0 1-.673.126c-.394-1.586.082-3.794 2.205-3.3a.342.342 0 0 1-.178.66Z" data-name="dental treatment" fill="#dedede" class="fill-1a171b"></path></g></g></svg>