<svg viewBox="0 0 22.589 21.157" xmlns="http://www.w3.org/2000/svg"><g data-name="Layer 2"><g data-name="Layer 1"><path d="M5.531 7.722a11.119 11.119 0 0 1-.178-2.584A2.9 2.9 0 0 1 9.042 2.29a.342.342 0 0 1-.179.66C5.912 2.3 5.752 5.518 6.2 7.6a.342.342 0 0 1-.673.126Zm16.223 9.76c-5.3 4.538-14.321 4.157-18.614 2.65L.289 19.68A.344.344 0 0 1 0 19.342v-6.157a.345.345 0 0 1 .4-.338l2.85.453c.606 0 1.149.008 1.644.021C3.686 9.846 1.859 4.717 4.641 1.43c2.101-2.33 5.608-1.452 7.691.17.937-.688 4.714-3.134 7.455-.158 2.871 3.588.793 9.269-.7 12.879.794-.323 1.325-.464 1.7-.181a.988.988 0 0 1 .427 1.087.987.987 0 0 1 .953.128c1.009.794-.056 1.92-.413 2.127ZM2.878 13.934l-2.193-.348v5.463l2.193.349ZM18.6 15.267c-.24.441-.491.863-.755 1.258.856-.3 1.548-.588 2.1-.822a.94.94 0 0 0 .612-.73c-.115-.669-1.048-.039-1.844.247ZM5.641 13.349a11.625 11.625 0 0 1 3.677.558c1.814-6.087 4.881-4.68 6.1 1.362a1.8 1.8 0 0 1 .468 1.838c.308-.077.6-.157.876-.238C19 14 22.36 5.63 19.283 1.905c-2.264-2.458-5.349-.617-6.381.12a12.151 12.151 0 0 1 1.3 1.181c.307.322-.208.794-.5.464-.027-.029-2.759-2.947-5.611-3.006-2.93-.1-4.5 2.883-4.189 5.587a23.263 23.263 0 0 0 1.739 7.098Zm6.567-2.734c-.572 0-1.628 1.23-2.274 3.594.806.458 1.119.725 4.412.688a1.726 1.726 0 0 1 .311.026c-.612-2.833-1.821-4.308-2.449-4.308Zm9.515 5.263c-.148-.125-.81.157-1.51.455a25.539 25.539 0 0 1-5.379 1.712 13.3 13.3 0 0 1-5.442.092.342.342 0 0 1 .088-.679c3.138.361 5.52.4 5.789-.72a.925.925 0 0 0-.9-1.157c-3.355.057-3.965-.3-4.671-.715-.687-.4-1.465-.86-6.138-.881v5.562c1.564.475 10.784 2.933 17.784-2.615.233-.186.871-.684.379-1.054Zm-19.942-.427a.342.342 0 0 0 0-.684.342.342 0 0 0 0 .684Z" data-name="dental care" fill="#dedede" class="fill-1a171b"></path></g></g></svg>