<svg viewBox="0 0 512 512" xml:space="preserve" xmlns="http://www.w3.org/2000/svg"><path d="m410.02 275.895-5.31-78.57-8.51-125.98-.101-1a9.556 9.556 0 0 0-2.64-5.74l-45.89-47.5c-2.57-2.65-6.61-2.84-9.4-.42-2.8 2.41-3.199 6.44-.949 9.36l37.569 48.7c.12.15.181.34.17.49l-1.54 22.71-3.449-26.44-.16-.99a9.629 9.629 0 0 0-2.99-5.57l-48.771-44.54c-2.729-2.49-6.77-2.42-9.409.16-2.631 2.59-2.791 6.63-.36 9.4l40.53 46.271c.129.14.199.33.199.479l-1.05 201.101c-.03 5.67.22 11.399.74 17.039l17.09 184.881a19.023 19.023 0 0 0 18.99 17.279c.29 0 .579-.01.87-.02h.05c.1 0 .21 0 .31-.01 10.221-.15 18.44-8.21 18.79-18.49l2.921-97.83h.01l2.609-87.73v-.01a175.57 175.57 0 0 0-.319-17.03zm-11.82-26.571h-25l.489-7.33H397.7l.5 7.33zm1.15 17.01.021.33H372.02l.5-7.34H398.87l.48 7.01zm-.82 86.99h-25.671l-.219-7.33h26.109l-.219 7.33zm.52-17.33h-26.709l-.22-7.33h27.15l-.09 2.9-.131 4.43zm-.29-17.33H371.82l-.221-7.34H399.79l-.22 7.34h-.81zm-.56-17.34h-26.89l-.221-7.33H400.299l-.21 7.33H398.2zm2.159-17.33H371.02c.021-.609.03-1.23.051-1.84.02-.381.029-.75.039-1.131.021-.369.031-.729.051-1.09.02-.479.04-.959.08-1.439.029-.609.07-1.221.109-1.83H400.051c.06.88.11 1.76.15 2.65l.09 1.99.03.85c.019.619.029 1.231.038 1.84zm-9.439-52h-16.55l.08-1.16.42-6.17H396.531l.5 7.33h-6.111zm-2.26-17.33h-13.12l.5-7.34h19.319l.5 7.34h-7.199zm-15.5 148.66h25.071l-.211 7.34h-24.639l-.221-7.34zm9.55-294.69-2.95-3.82 6.4 6.62.061.65 8.469 125.24H376.71l3.31-48.84 4.92-72.6c.16-2.61-.64-5.18-2.23-7.25zm-24.06 225.3c-.49-5.31-.721-10.72-.69-16.069l1.05-201.13c0-2.61-.949-5.13-2.67-7.09l-3.18-3.63 6.8 6.21.101.64 9.92 75.96-3.291 48.5-.42 6.22-4.899 72.341c-.33 4.909-.46 9.899-.37 14.829.01.74.03 1.48.05 2.22l1.181 39.75-3.582-38.751zm27.05 193.06h-.17a9.073 9.073 0 0 1-8.94-8.79l-2.92-97.54H397.721l-2.91 97.52a9.084 9.084 0 0 1-9.111 8.81zM193.582 60.99c0-25.364-20.636-46-46-46s-46 20.636-46 46c0 23.674 17.979 43.223 41 45.724v98.242h-5.561a5 5 0 0 0-4.929 4.159l-5.439 31.895c-.043.254-.06.509-.063.763 0 .026-.008.051-.008.078V475.849c0 11.579 9.42 21 21 21s21-9.421 21-21v-234c0-.026-.007-.051-.008-.078a5.034 5.034 0 0 0-.063-.763l-5.439-31.895a5 5 0 0 0-4.929-4.159h-5.561v-98.242c23.021-2.499 41-22.048 41-45.722zm-35 399h-22V246.849h22V459.99zm0 15.86c0 6.065-4.935 11-11 11s-11-4.935-11-11v-5.859h22v5.859zm-.925-239.001h-20.15l3.734-21.894h12.683l3.733 21.894zM111.582 60.99c0-19.851 16.149-36 36-36s36 16.149 36 36-16.149 36-36 36-36-16.15-36-36zM291.641 60.99c0-25.364-20.637-46-46-46a46.055 46.055 0 0 0-29.407 10.626 5 5 0 1 0 6.397 7.687 36.043 36.043 0 0 1 23.01-8.313c19.85 0 36 16.149 36 36s-16.15 36-36 36a5 5 0 0 0-5 5v102.965h-5.561a5 5 0 0 0-4.929 4.159l-5.439 31.895c-.043.254-.06.509-.063.763 0 .026-.008.051-.008.078v233.999c0 11.579 9.42 21 21 21s21-9.421 21-21v-234c0-.026-.008-.051-.008-.078a5.036 5.036 0 0 0-.064-.763l-5.439-31.895a4.999 4.999 0 0 0-4.928-4.159h-5.561v-98.242c23.019-2.499 41-22.048 41-45.722zm-35 399h-22V246.849h22V459.99zm0 15.86c0 6.065-4.935 11-11 11s-11-4.935-11-11v-5.859h22v5.859zm-.926-239.001h-20.15l3.734-21.894h12.683l3.733 21.894z" fill="#dedede" class="fill-000000"></path></svg>