<?xml version="1.0" encoding="UTF-8"?>
<svg id="logo" xmlns="http://www.w3.org/2000/svg" viewBox="0 0 457.62 156.4">
  <defs>
    <style>
      .cls-1 {
        fill: #fff;
        stroke-width: 0px;
      }
    </style>
  </defs>
  <path id="DIENTE" class="cls-1" d="m114.66,9.51c-6.94-8.14-16.13-11.61-26.51-8.21-6.87,2.25-13.84,5.3-19.59,9.56-5.83,4.32-10.37,6-16.08.62-1.39-1.31-3.47-1.96-5.33-2.67-12.97-4.96-24.97-2.69-35.77,5.59C1.1,22.26-1.99,33.36,1.2,45.24c2.65,9.84,7.32,19.2,11.64,28.51,2.29,4.92,4.64,9.57,3.72,15.18-3.83,23.37,14,43.75,33.16,54.63,3.12,1.77,5.62.85,6.61-2.61,1.05-3.67,1.96-7.43,2.4-11.21.81-6.99,1.24-14.02,1.83-21.04.48-.14.96-.27,1.43-.41,3.14,8.29,6.28,16.58,9.42,24.87.09.11.18.22.26.34,0,0,0,0,0,0,0,0,0,0,0,0,.31-.56.84-1.18.72-1.62-2.4-8.95-4.65-17.95-7.6-26.72-.48-1.42-4.59-2.93-6.22-2.31-1.93.74-3.82,3.6-4.25,5.82-1,5.19-1.07,10.57-1.63,15.85-.18,1.64-.6,3.29-1.16,4.85-1.92,5.36-6.23,6.47-9.78,2.07-8.8-10.91-14.89-23.03-13.03-37.58,1.08-8.45-.33-16.03-4.24-23.59-3.34-6.47-6.14-13.3-8.39-20.23-3.31-10.18-2.22-19.96,4.84-28.55v-.04s0,0,0,.01c0,0,.01,0,.02,0,12.69-9.34,24.66-10.29,35.99-2.85-7.64,8.15-19.69,10.45-30.19,5.74-1.96-.88-3.86-1.91-5.79-2.88,0,0,0,0,0,0,10.18,13.49,24.41,12.21,35.92,5.44,7.26-4.28,14.5-9.06,22.39-11.72,16.94-5.71,30.14,5.51,28,23.39-.68,5.65-3.04,11.15-5.03,16.57-1.25,3.41-3.05,6.67-4.95,9.79-4.74,7.8-6.24,16.06-3.95,24.91,3.49,13.45.91,26.45-3.05,39.26-1.71,5.53-3.84,11.01-6.43,16.18-1.95,3.87-4.44,3.66-6.53-.18-2.06-3.79-3.79-7.76-5.67-11.64-.03.05-.06.11-.08.16-.06-.16-.12-.33-.18-.49-1.59-2.03-3.21-4.11-5.52-7.08,3.82,9.51,7.16,17.77,10.46,26.05,2.06,5.15,4.26,5.72,7.65,1.17,3.36-4.51,6.2-9.47,8.78-14.48,8.1-15.77,13.69-32.04,11.48-50.35-.5-4.16,1.85-8.99,3.84-13.05,3.28-6.71,7.85-12.81,10.97-19.59,7.43-16.16,7.75-32.05-4.42-46.33Z"/>
  <g id="CEMA">
    <path id="C" class="cls-1" d="m186.81,63.55l19.38,5.86c-1.3,5.44-3.35,9.98-6.15,13.62-2.8,3.65-6.27,6.4-10.42,8.25s-9.43,2.78-15.84,2.78c-7.78,0-14.14-1.13-19.07-3.39s-9.19-6.24-12.77-11.93c-3.58-5.69-5.37-12.98-5.37-21.86,0-11.84,3.15-20.94,9.45-27.3,6.3-6.36,15.21-9.54,26.73-9.54,9.02,0,16.1,1.82,21.26,5.47,5.16,3.65,8.99,9.25,11.5,16.8l-19.53,4.35c-.68-2.18-1.4-3.78-2.15-4.79-1.24-1.69-2.75-2.99-4.54-3.91-1.79-.91-3.79-1.37-6.01-1.37-5.01,0-8.85,2.02-11.52,6.05-2.02,2.99-3.03,7.69-3.03,14.09,0,7.93,1.2,13.37,3.61,16.31,2.41,2.94,5.79,4.41,10.16,4.41s7.43-1.19,9.59-3.56c2.16-2.38,3.74-5.83,4.71-10.35Z"/>
    <path id="E" class="cls-1" d="m216.88,21.27h59.28v15.28h-37.11v11.38h34.42v14.6h-34.42v14.11h38.18v16.21h-60.35V21.27Z"/>
    <path id="M" class="cls-1" d="m288.91,21.27h29.09l11.22,43.55,11.14-43.55h29.07v71.58h-18.12v-54.59l-13.96,54.59h-16.4l-13.93-54.59v54.59h-18.12V21.27Z"/>
    <path id="A" class="cls-1" d="m427.54,81.03h-25.11l-3.49,11.82h-22.58l26.9-71.58h24.13l26.9,71.58h-23.16l-3.58-11.82Zm-4.59-15.48l-7.9-25.73-7.82,25.73h15.72Z"/>
  </g>
  <g id="CLINICA_DENTAL" data-name="CLINICA DENTAL">
    <path id="C-2" data-name="C" class="cls-1" d="m140.81,125.97l6.98,2.11c-.47,1.96-1.21,3.59-2.21,4.9s-2.26,2.3-3.75,2.97-3.4,1-5.7,1c-2.8,0-5.09-.41-6.86-1.22-1.78-.81-3.31-2.25-4.6-4.29-1.29-2.05-1.93-4.67-1.93-7.87,0-4.26,1.13-7.54,3.4-9.83,2.27-2.29,5.48-3.43,9.62-3.43,3.25,0,5.8.66,7.66,1.97s3.24,3.33,4.14,6.05l-7.03,1.56c-.25-.79-.5-1.36-.77-1.72-.45-.61-.99-1.08-1.63-1.41s-1.37-.49-2.16-.49c-1.8,0-3.19.73-4.15,2.18-.73,1.08-1.09,2.77-1.09,5.07,0,2.86.43,4.81,1.3,5.87s2.09,1.59,3.66,1.59,2.67-.43,3.45-1.28,1.34-2.1,1.7-3.73Z"/>
    <path id="L" class="cls-1" d="m151.66,110.75h7.96v19.42h12.43v6.35h-20.39v-25.77Z"/>
    <path id="I" class="cls-1" d="m175.98,110.75h7.98v25.77h-7.98v-25.77Z"/>
    <path id="N" class="cls-1" d="m189.73,110.75h7.44l9.7,14.26v-14.26h7.51v25.77h-7.51l-9.65-14.15v14.15h-7.49v-25.77Z"/>
    <path id="I-2" data-name="I" class="cls-1" d="m219.98,110.75h7.98v25.77h-7.98v-25.77Z"/>
    <path id="C-3" data-name="C" class="cls-1" d="m250.83,125.97l6.98,2.11c-.47,1.96-1.21,3.59-2.21,4.9s-2.26,2.3-3.75,2.97-3.4,1-5.7,1c-2.8,0-5.09-.41-6.86-1.22-1.78-.81-3.31-2.25-4.6-4.29-1.29-2.05-1.93-4.67-1.93-7.87,0-4.26,1.13-7.54,3.4-9.83,2.27-2.29,5.48-3.43,9.62-3.43,3.25,0,5.8.66,7.66,1.97s3.24,3.33,4.14,6.05l-7.03,1.56c-.25-.79-.5-1.36-.77-1.72-.45-.61-.99-1.08-1.63-1.41s-1.37-.49-2.16-.49c-1.8,0-3.19.73-4.15,2.18-.73,1.08-1.09,2.77-1.09,5.07,0,2.86.43,4.81,1.3,5.87s2.09,1.59,3.66,1.59,2.67-.43,3.45-1.28,1.34-2.1,1.7-3.73Z"/>
    <path id="A-2" data-name="A" class="cls-1" d="m277.52,132.27h-9.04l-1.26,4.25h-8.13l9.69-25.77h8.69l9.68,25.77h-8.34l-1.29-4.25Zm-1.65-5.57l-2.84-9.26-2.81,9.26h5.66Z"/>
    <path id="D" class="cls-1" d="m301.79,110.75h11.83c2.33,0,4.22.32,5.65.95s2.62,1.54,3.56,2.72,1.62,2.56,2.04,4.13.63,3.23.63,4.99c0,2.75-.31,4.89-.94,6.41s-1.5,2.79-2.61,3.81-2.31,1.71-3.59,2.05c-1.75.47-3.33.7-4.75.7h-11.83v-25.77Zm7.96,5.84v14.08h1.95c1.66,0,2.85-.18,3.55-.55s1.25-1.01,1.65-1.93.6-2.41.6-4.47c0-2.73-.45-4.6-1.34-5.61s-2.37-1.51-4.43-1.51h-1.99Z"/>
    <path id="E-2" data-name="E" class="cls-1" d="m329.67,110.75h21.34v5.5h-13.36v4.1h12.39v5.26h-12.39v5.08h13.75v5.84h-21.73v-25.77Z"/>
    <path id="N-2" data-name="N" class="cls-1" d="m355.74,110.75h7.44l9.7,14.26v-14.26h7.51v25.77h-7.51l-9.65-14.15v14.15h-7.49v-25.77Z"/>
    <path id="T" class="cls-1" d="m383.86,110.75h24.21v6.36h-8.12v19.41h-7.96v-19.41h-8.12v-6.36Z"/>
    <path id="A-3" data-name="A" class="cls-1" d="m425.07,132.27h-9.04l-1.26,4.25h-8.13l9.69-25.77h8.69l9.68,25.77h-8.34l-1.29-4.25Zm-1.65-5.57l-2.84-9.26-2.81,9.26h5.66Z"/>
    <path id="L-2" data-name="L" class="cls-1" d="m437.23,110.75h7.96v19.42h12.43v6.35h-20.39v-25.77Z"/>
  </g>
</svg>